# xmcd
#
# Track frame offsets:
# 150
# 24227
# 42470
# 55710
# 68737
# 78065
# 87147
# 97362
# 112487
# 126925
# 143542
# 158602
# 170107
# 177727
# 186640
# 204297
#
# Disc length: 3033 seconds
#
#
# Revision: 1
# Processed by: cddbd v1.5.2PL0 Copyright (c) Steve Scherf et al.
# Submitted via: FreeRIP 2.96 
#
DISCID=e30bd710
DTITLE=Déo Seresteiro - Déo Seresteiro
DYEAR=2001
DGENRE=Forró
TTITLE0=Vaqueiro Apaixonado
TTITLE1=Rojão Gaucho
TTITLE2=Amor Com Voce
TTITLE3=O Gemidinho
TTITLE4=Pimenta na Banda
TTITLE5=Toque Sanfoneiro
TTITLE6=Certidao de Casamento
TTITLE7=Nois Nao Vive Sem Muie
TTITLE8=De Olho na Calcinha
TTITLE9=Massa de Mandioca
TTITLE10=Forro do Penta
TTITLE11=Dengo
TTITLE12=Para Pedro
TTITLE13=Vamos Lá Pra Ver
TTITLE14=Morango do Nordeste
TTITLE15=Paixao Errante
EXTD=
EXTT0=
EXTT1=
EXTT2=
EXTT3=
EXTT4=
EXTT5=
EXTT6=
EXTT7=
EXTT8=
EXTT9=
EXTT10=
EXTT11=
EXTT12=
EXTT13=
EXTT14=
EXTT15=
PLAYORDER=
